<svg width="72" height="89" viewBox="0 0 72 89" fill="none" xmlns="http://www.w3.org/2000/svg">
<path d="M4 1L1.5 2.5C1.5 9.16667 -0.4329 26.4234 1.5 41.5C4 61 20 82 36 88.5C58 79.7 68.1667 54.1667 70.5 42.5V3.5L67.5 1H4Z" fill="white"/>
<path d="M3.37564 0.251314C2.30157 0.680941 1.25819 1.72432 0.583065 3.04389C0.0306876 4.11796 0 5.06928 0 20.0755C0 36.0638 0.0613753 37.1379 1.22751 44.104C1.7492 47.2034 2.79258 51.2542 3.37564 52.5431C3.52908 52.8806 3.80527 53.7092 4.02008 54.3843C4.60315 56.4404 7.11953 61.8107 8.83804 64.7261C12.9809 71.8763 18.2898 78.0445 24.0591 82.4635C25.3787 83.4762 26.5755 84.3048 26.6676 84.3048C26.7903 84.3048 27.1586 84.5503 27.4961 84.8265C28.7236 85.9619 34.8919 89 35.9352 89C36.7024 89 43.5458 85.7778 43.8833 85.2254C43.9754 85.1027 44.6505 84.6117 45.4177 84.1514C48.6092 82.1567 53.3351 77.8911 56.2505 74.3313C56.9563 73.472 57.6007 72.7355 57.6928 72.6435C58.8896 71.508 62.4801 65.8308 64.4134 62.0562C66.5615 57.8827 67.1753 56.379 68.3721 52.6965C70.3054 46.6817 70.2747 46.7124 71.4715 38.6723C71.6863 37.322 71.8091 30.1718 71.8091 20.1062L71.7784 3.74971L70.9498 2.55289C70.4895 1.87776 69.7223 1.04919 69.262 0.711629C68.4028 0.0671884 68.3414 0.0671884 36.2728 0.00581307C15.3438 -0.0248746 3.86664 0.0671884 3.37564 0.251314ZM68.5869 2.73701L69.6917 3.68833L69.5689 22.285C69.4768 35.0204 69.3234 41.4035 69.0779 42.5696C67.9118 48.0013 66.1933 53.8013 65.1499 55.7653C64.9351 56.1949 64.7509 56.6552 64.7509 56.8087C64.7509 57.3917 61.0684 64.3578 59.442 66.8742C55.3298 73.1959 49.9902 78.7196 44.6505 82.3101C43.6378 82.9852 42.7479 83.599 42.6558 83.691C42.3796 83.9672 40.0474 85.2561 38.9733 85.7471C38.3902 85.9926 37.4389 86.4222 36.9172 86.6677C35.9966 87.0974 35.8125 87.0974 34.7691 86.6064C27.312 83.2307 20.6835 77.9218 15.7121 71.416C15.0063 70.4953 14.2391 69.5133 14.0243 69.2678C13.2878 68.4086 11.3544 65.3398 11.3544 65.0023C11.3544 64.8181 11.2317 64.6647 11.1089 64.6647C10.9555 64.6647 10.5872 64.0816 10.2804 63.3451C9.97349 62.6393 9.54386 61.8414 9.35973 61.5959C9.05286 61.197 7.36504 57.5452 6.29097 54.9981C5.7079 53.5865 4.38833 49.3822 3.80527 47.1727C2.39364 41.4955 2.39364 41.3728 2.2402 22.2237L2.11745 3.87246L3.16083 2.82908L4.2349 1.75501H35.8739H67.4821L68.5869 2.73701Z" fill="#0C3B67"/>
<path d="M4.29627 4.17934C3.86665 5.00791 3.86665 28.0236 4.29627 28.2998C4.4804 28.4226 6.16822 28.8522 8.07085 29.2511C15.0676 30.7855 18.3512 31.522 21.7882 32.2892C23.7216 32.7495 26.8517 33.4554 28.693 33.8543C36.1807 35.5114 35.7818 35.4501 37.8379 34.9897C38.8813 34.7442 41.3363 34.2225 43.2696 33.7929C46.768 32.995 50.5119 32.1665 56.7722 30.7548C58.552 30.3866 61.6208 29.6808 63.6155 29.2511C65.6409 28.8215 67.3901 28.3919 67.5435 28.2691C67.9731 27.993 67.9118 4.42484 67.4515 3.96453C67.1753 3.68834 59.7489 3.59627 35.8432 3.59627C5.27828 3.59627 4.60315 3.59627 4.29627 4.17934ZM26.3914 9.88724V11.8819H21.6962C18.4433 11.8819 16.8782 12.0047 16.6327 12.2502C16.4179 12.465 16.2645 13.2015 16.2645 13.938V15.2576H19.3332H22.402V16.9454V18.6332H19.3332H16.2645V22.3157V25.9983H14.5766H12.8888V18.6332C12.8888 10.8999 13.0423 9.88724 14.3004 8.78249C15.1597 8.0153 15.62 7.95392 21.2665 7.92323L26.3914 7.89255V9.88724ZM40.0781 8.13805C40.4156 8.2608 41.0908 8.69042 41.6125 9.05868C42.4717 9.76449 42.5024 9.85656 42.5945 13.1401L42.7172 16.4851L41.6431 17.5592L40.5691 18.6332H36.3956H32.222V22.3157V25.9983H30.6877H29.1533V16.9454V7.89255L34.3088 7.92323C37.1321 7.95392 39.7098 8.04598 40.0781 8.13805ZM58.9203 9.88724V11.8819H54.2251C50.9722 11.8819 49.4071 12.0047 49.1616 12.2502C48.9468 12.465 48.7934 13.2015 48.7934 13.938V15.2576H51.8621H54.9309V16.9454V18.6332H51.8621H48.7934V22.3157V25.9983H47.1055H45.4177V18.4491C45.4177 9.42693 45.5405 8.96661 48.1796 8.10736C48.4251 8.0153 50.9415 7.92323 53.7955 7.92323L58.9203 7.89255V9.88724Z" fill="#0C3B67"/>
<path d="M32.222 13.5698V15.2576H35.076C38.4516 15.2576 39.2802 14.8586 39.2802 13.2936C39.2802 11.974 39.0347 11.8819 35.2601 11.8819H32.222V13.5698Z" fill="#0C3B67"/>
<path d="M4.11215 35.5728C4.32696 40.0532 4.44971 40.9738 5.33965 45.0246C5.89203 47.541 7.2116 51.9907 7.82535 53.4637C8.04017 53.9547 8.53117 55.1822 8.89942 56.1335C9.26767 57.1155 9.63593 57.9134 9.6973 57.9134C9.75868 57.9134 9.82005 52.2055 9.82005 45.2394V32.5347L7.61054 32.1358C6.38303 31.921 5.03278 31.6141 4.63384 31.4607L3.89734 31.1845L4.11215 35.5728Z" fill="#0C3B67"/>
<path d="M67.0525 31.4914C66.715 31.6448 65.4261 31.921 64.1986 32.1358C62.9404 32.3813 61.8663 32.6882 61.8049 32.8723C61.7436 33.0564 61.7129 38.8871 61.7436 45.7918L61.8356 58.3737L62.6335 56.6859C63.0938 55.7346 63.8303 53.8933 64.2906 52.5431C64.7509 51.1928 65.242 49.8119 65.3954 49.4743C65.6409 48.8913 66.6229 44.687 67.206 41.649C67.5128 40.176 68.0038 31.2152 67.789 31.2459C67.7277 31.2459 67.3901 31.3686 67.0525 31.4914Z" fill="#0C3B67"/>
<path d="M14.7301 50.3949V67.0276L16.7555 69.6975C17.8602 71.1398 18.9036 72.3366 19.057 72.3366C19.4253 72.3366 19.4253 34.9897 19.057 34.7749C18.9036 34.6829 17.8602 34.4067 16.7555 34.1612L14.7301 33.7315V50.3949Z" fill="#0C3B67"/>
<path d="M54.9309 34.1612C53.8568 34.4067 52.8441 34.7135 52.7214 34.8363C52.5679 34.9897 52.5066 43.5823 52.5373 53.9547L52.6293 72.7969L54.8695 69.943L57.079 67.0583V50.3642C57.079 41.1886 57.0483 33.6702 57.0177 33.7009C56.9563 33.7315 56.0356 33.9157 54.9309 34.1612Z" fill="#0C3B67"/>
<path d="M23.9364 43.8585C23.9364 51.2542 23.875 52.0828 23.3533 53.1875C22.5247 54.906 21.9724 58.2817 22.2179 60.3377C22.4327 62.1483 23.2306 64.9409 23.6602 65.4319C23.8136 65.5853 23.9364 68.3165 23.9364 71.508V77.308L24.8877 78.198C25.4094 78.689 26.4528 79.4868 27.1893 80.0085L28.5395 80.8985V76.0498C28.5395 73.38 28.6316 71.1398 28.7236 71.017C28.8464 70.925 29.2453 71.0477 29.6443 71.2932C30.0432 71.5694 31.0252 71.9377 31.8231 72.1525L33.2961 72.5207L33.3882 78.2286L33.4495 83.9059L34.7077 84.4582C35.8432 84.9799 35.9966 84.9799 36.9786 84.5196L38.0527 83.9979V78.3514V72.6742L39.3723 72.3366C40.0781 72.1525 41.1215 71.8149 41.6738 71.5694C42.2262 71.3239 42.7479 71.1091 42.8093 71.1091C42.9013 71.1091 42.9627 73.3186 42.9627 76.0191C42.9627 78.7196 43.0241 80.9292 43.1162 80.9292C43.2696 80.9292 44.9574 79.7937 46.4304 78.6583L47.5659 77.799V72.1832C47.5659 66.7208 47.5965 66.506 48.3637 64.9409C50.0822 61.5652 50.0516 56.4097 48.3637 53.0034L47.5659 51.4076V43.5823C47.5659 36.2479 47.5352 35.7569 47.0442 35.9717C46.7373 36.0945 45.6939 36.34 44.7426 36.5241L42.9627 36.8617V41.8331V46.8352L41.367 46.2521C40.477 45.9452 39.3723 45.6077 38.9119 45.4849L38.0527 45.3315V41.6797V38.0278L36.9479 38.2733C36.3342 38.4268 35.6591 38.4881 35.4749 38.4268C35.2908 38.3654 34.7691 38.2426 34.3088 38.1506L33.4495 37.9664V41.649C33.4495 44.3495 33.3575 45.3929 33.0813 45.4542C32.8665 45.5463 31.8845 45.8225 30.9332 46.1294C29.9512 46.4055 29.1533 46.7738 29.1533 46.9272C29.1533 47.0807 29.0305 47.1114 28.8464 47.0193C28.6623 46.8966 28.5395 44.8405 28.5395 41.8331V36.831L26.9438 36.4934C26.0538 36.3093 25.0104 36.0638 24.6422 35.9411L23.9364 35.7569V43.8585ZM38.6358 46.9272C41.7045 47.9092 42.5331 48.3696 44.1595 49.9346C46.9214 52.6658 47.3204 53.341 48.0569 56.778C48.5786 59.325 48.2717 61.6266 47.0135 64.3578C46.1849 66.107 42.9934 69.5747 42.1955 69.5747C41.95 69.5747 41.7352 69.6975 41.7352 69.8202C41.7352 70.3726 38.2982 71.1398 35.8432 71.1398C33.0199 71.1398 31.5776 70.7409 29.2146 69.2678C26.2993 67.488 24.6115 64.9409 23.8136 61.1356C23.384 59.1409 23.4147 58.742 23.9057 56.4711C24.5501 53.5251 25.7776 51.4076 28.0485 49.505C30.8104 47.1114 35.6591 45.9452 38.6358 46.9272Z" fill="#0C3B67"/>
<path d="M33.2654 48.8299C28.6009 49.9653 25.4708 54.0161 25.4708 58.9875C25.4708 64.2044 28.9385 68.3472 34.094 69.2985C35.8125 69.6054 36.4569 69.5747 38.4516 69.1451C39.7405 68.8382 40.8146 68.5007 40.8146 68.3472C40.8146 68.1938 41.0908 68.0096 41.3976 67.8869C42.3797 67.58 44.6812 65.125 45.4177 63.5599C46.277 61.8107 46.5839 58.2817 46.0622 56.1642C45.1722 52.6351 42.1648 49.7198 38.5744 48.8606C36.3342 48.3389 35.3522 48.3082 33.2654 48.8299ZM38.6051 49.7505C38.6971 49.8732 38.6358 50.2108 38.4823 50.487C37.8379 51.469 32.5289 51.1928 32.5289 50.1801C32.5289 49.4743 37.9606 49.1061 38.6051 49.7505ZM32.6824 50.9166C33.603 51.3156 33.603 51.4076 32.9279 52.942C32.621 53.6478 32.0993 54.2616 31.5776 54.5071C31.0866 54.7219 30.2273 55.2129 29.6443 55.6118L28.6009 56.3177L27.9258 55.6118C27.0972 54.7219 27.3427 54.1081 29.4601 51.9907C30.9945 50.4563 31.3935 50.3336 32.6824 50.9166ZM40.968 51.1928C42.5331 51.9293 44.4971 53.9547 44.4971 54.814C44.4971 55.6118 42.7172 56.9007 42.5024 56.3177C42.4103 56.0722 41.6125 55.5198 40.7225 55.0288C39.3723 54.323 39.0347 53.9854 38.6051 52.8193C38.1448 51.4997 38.1448 51.4383 38.7585 51.0087C39.5564 50.4563 39.3416 50.4256 40.968 51.1928ZM33.9712 55.305C35.4749 56.0415 35.6284 56.4404 35.5363 58.8647C35.4442 60.8594 35.3522 61.1663 34.7691 61.4732C34.3702 61.6573 33.8178 62.0256 33.5109 62.3324C32.9585 62.7927 32.0686 62.7621 31.6083 62.2404C31.5162 62.1483 30.9638 61.7801 30.3808 61.4732C28.9385 60.6753 28.8464 60.4912 28.8464 58.4965C28.8464 56.8393 28.9078 56.7473 30.0125 55.9801C31.8845 54.7219 32.5596 54.5991 33.9712 55.305ZM40.2008 55.305C42.1341 56.287 42.6558 57.0848 42.6558 58.9261V60.6446L40.8146 61.7494C39.8019 62.3631 38.8506 62.8234 38.7278 62.7621C38.6051 62.7007 37.9913 62.3324 37.3776 61.9335L36.2114 61.2277V58.8954C36.2114 56.2563 36.3035 56.0415 37.5924 55.3663C38.7585 54.7526 39.0961 54.7219 40.2008 55.305ZM30.5956 62.2097C32.3755 63.2224 32.6824 63.5599 33.2347 65.3398C33.3575 65.7081 33.0813 66.0456 32.3448 66.4753C31.7617 66.8435 31.1173 67.1197 30.9332 67.1197C30.7183 67.1197 29.9205 66.4446 29.0919 65.5853C27.7723 64.2351 27.6189 63.8975 27.6189 62.7007C27.6189 61.9028 27.7723 61.2891 28.0178 61.197C28.4781 60.9822 28.3554 60.9515 30.5956 62.2097ZM43.6072 61.6266C44.8653 62.2711 43.423 65.616 41.4283 66.6594C40.2929 67.2425 39.4336 67.2425 38.5437 66.6594L37.8072 66.1684L38.4209 64.7261C38.9119 63.5293 39.3416 63.0996 40.7532 62.3017C42.7479 61.197 42.7786 61.1663 43.6072 61.6266ZM38.2675 67.1197C38.9119 67.6107 38.9119 67.7028 38.4516 68.071C37.7765 68.6541 34.2167 68.5927 32.8665 68.0096L31.8231 67.5493L32.8358 66.9049C33.6644 66.3832 34.1554 66.2911 35.7204 66.4446C36.7945 66.5366 37.8686 66.8128 38.2675 67.1197Z" fill="#0C3B67"/>
</svg>
